{"glyphs":{"0":{"ha":833,"x_min":0,"x_max":0,"o":"m 139 972 l 556 972 l 556 833 l 139 833 m 139 278 l 139 139 l 0 139 l 0 833 l 139 833 l 139 417 l 278 417 l 278 278 m 694 833 l 694 139 l 556 139 l 556 556 l 417 556 l 417 694 l 556 694 l 556 833 m 278 556 l 417 556 l 417 417 l 278 417 m 556 0 l 139 0 l 139 139 l 556 139 "},"1":{"ha":833,"x_min":0,"x_max":0,"o":"m 694 0 l 0 0 l 0 139 l 278 139 l 278 694 l 139 694 l 139 833 l 278 833 l 278 972 l 417 972 l 417 139 l 694 139 "},"2":{"ha":833,"x_min":0,"x_max":0,"o":"m 556 833 l 139 833 l 139 972 l 556 972 m 0 833 l 139 833 l 139 694 l 0 694 m 694 833 l 694 556 l 556 556 l 556 833 m 556 556 l 556 417 l 278 417 l 278 556 m 139 417 l 278 417 l 278 278 l 139 278 m 139 278 l 139 139 l 556 139 l 556 278 l 694 278 l 694 0 l 0 0 l 0 278 "},"3":{"ha":833,"x_min":0,"x_max":0,"o":"m 556 833 l 139 833 l 139 972 l 556 972 m 0 833 l 139 833 l 139 694 l 0 694 m 694 833 l 694 556 l 556 556 l 556 833 m 556 556 l 556 417 l 278 417 l 278 556 m 556 417 l 694 417 l 694 139 l 556 139 m 139 278 l 139 139 l 0 139 l 0 278 m 556 0 l 139 0 l 139 139 l 556 139 "},"4":{"ha":833,"x_min":0,"x_max":0,"o":"m 694 0 l 556 0 l 556 278 l 0 278 l 0 556 l 139 556 l 139 417 l 556 417 l 556 833 l 417 833 l 417 972 l 694 972 m 417 694 l 278 694 l 278 833 l 417 833 m 278 556 l 139 556 l 139 694 l 278 694 "},"5":{"ha":833,"x_min":0,"x_max":0,"o":"m 139 694 l 556 694 l 556 556 l 0 556 l 0 972 l 694 972 l 694 833 l 139 833 m 694 556 l 694 139 l 556 139 l 556 556 m 139 278 l 139 139 l 0 139 l 0 278 m 556 0 l 139 0 l 139 139 l 556 139 "},"6":{"ha":833,"x_min":0,"x_max":0,"o":"m 278 833 l 278 972 l 556 972 l 556 833 m 278 694 l 139 694 l 139 833 l 278 833 m 139 139 l 0 139 l 0 694 l 139 694 l 139 556 l 556 556 l 556 417 l 139 417 m 694 417 l 694 139 l 556 139 l 556 417 m 556 0 l 139 0 l 139 139 l 556 139 "},"7":{"ha":833,"x_min":0,"x_max":0,"o":"m 694 556 l 556 556 l 556 833 l 139 833 l 139 694 l 0 694 l 0 972 l 694 972 m 417 556 l 556 556 l 556 417 l 417 417 m 417 417 l 417 0 l 278 0 l 278 417 "},"8":{"ha":833,"x_min":0,"x_max":0,"o":"m 139 972 l 556 972 l 556 833 l 139 833 m 139 556 l 0 556 l 0 833 l 139 833 m 694 833 l 694 556 l 556 556 l 556 833 m 556 417 l 139 417 l 139 556 l 556 556 m 139 139 l 0 139 l 0 417 l 139 417 m 556 417 l 694 417 l 694 139 l 556 139 m 556 0 l 139 0 l 139 139 l 556 139 "},"9":{"ha":833,"x_min":0,"x_max":0,"o":"m 139 972 l 556 972 l 556 833 l 139 833 m 139 556 l 0 556 l 0 833 l 139 833 m 694 833 l 694 278 l 556 278 l 556 417 l 139 417 l 139 556 l 556 556 l 556 833 m 417 278 l 556 278 l 556 139 l 417 139 m 417 139 l 417 0 l 139 0 l 139 139 "},"A":{"ha":833,"x_min":0,"x_max":0,"o":"m 139 972 l 556 972 l 556 833 l 139 833 m 694 833 l 694 0 l 556 0 l 556 556 l 139 556 l 139 0 l 0 0 l 0 833 l 139 833 l 139 694 l 556 694 l 556 833 "},"Ä":{"ha":833,"x_min":0,"x_max":0,"o":"m 139 972 l 139 833 l 0 833 l 0 972 m 694 833 l 556 833 l 556 972 l 694 972 m 556 694 l 139 694 l 139 833 l 556 833 m 556 694 l 694 694 l 694 0 l 556 0 l 556 417 l 139 417 l 139 0 l 0 0 l 0 694 l 139 694 l 139 556 l 556 556 "},"Å":{"ha":833,"x_min":0,"x_max":0,"o":"m 417 833 l 278 833 l 278 972 l 417 972 m 139 694 l 556 694 l 556 556 l 139 556 m 694 556 l 694 0 l 556 0 l 556 278 l 139 278 l 139 0 l 0 0 l 0 556 l 139 556 l 139 417 l 556 417 l 556 556 "},"Æ":{"ha":833,"x_min":0,"x_max":0,"o":"m 417 694 l 556 694 l 556 556 l 417 556 l 417 139 l 694 139 l 694 0 l 278 0 l 278 556 l 139 556 l 139 0 l 0 0 l 0 833 l 139 833 l 139 694 l 278 694 l 278 833 l 139 833 l 139 972 l 694 972 l 694 833 l 417 833 "},"B":{"ha":833,"x_min":0,"x_max":0,"o":"m 556 556 l 139 556 l 139 139 l 556 139 l 556 0 l 0 0 l 0 972 l 556 972 l 556 833 l 139 833 l 139 694 l 556 694 m 556 694 l 556 833 l 694 833 l 694 694 m 694 556 l 694 139 l 556 139 l 556 556 "},"C":{"ha":833,"x_min":0,"x_max":0,"o":"m 556 833 l 139 833 l 139 972 l 556 972 m 139 833 l 139 139 l 0 139 l 0 833 m 556 694 l 556 833 l 694 833 l 694 694 m 694 139 l 556 139 l 556 278 l 694 278 m 139 139 l 556 139 l 556 0 l 139 0 "},"Ç":{"ha":833,"x_min":0,"x_max":0,"o":"m 556 833 l 139 833 l 139 972 l 556 972 m 139 833 l 139 139 l 0 139 l 0 833 m 556 694 l 556 833 l 694 833 l 694 694 m 694 139 l 556 139 l 556 278 l 694 278 m 139 139 l 556 139 l 556 0 l 139 0 m 556 -139 l 556 0 l 694 0 l 694 -139 m 556 -139 l 556 -278 l 278 -278 l 278 -139 "},"D":{"ha":833,"x_min":0,"x_max":0,"o":"m 556 0 l 0 0 l 0 972 l 556 972 l 556 833 l 139 833 l 139 139 l 556 139 m 694 833 l 694 139 l 556 139 l 556 833 "},"E":{"ha":833,"x_min":0,"x_max":0,"o":"m 139 694 l 417 694 l 417 556 l 139 556 l 139 139 l 694 139 l 694 0 l 0 0 l 0 972 l 694 972 l 694 833 l 139 833 "},"F":{"ha":833,"x_min":0,"x_max":0,"o":"m 694 833 l 139 833 l 139 694 l 417 694 l 417 556 l 139 556 l 139 0 l 0 0 l 0 972 l 694 972 "},"G":{"ha":833,"x_min":0,"x_max":0,"o":"m 139 972 l 694 972 l 694 833 l 139 833 m 0 139 l 0 833 l 139 833 l 139 139 m 556 139 l 556 556 l 417 556 l 417 694 l 694 694 l 694 139 m 139 139 l 556 139 l 556 0 l 139 0 "},"H":{"ha":833,"x_min":0,"x_max":0,"o":"m 694 972 l 694 0 l 556 0 l 556 556 l 139 556 l 139 0 l 0 0 l 0 972 l 139 972 l 139 694 l 556 694 l 556 972 "},"I":{"ha":556,"x_min":0,"x_max":0,"o":"m 417 139 l 417 0 l 0 0 l 0 139 l 139 139 l 139 833 l 0 833 l 0 972 l 417 972 l 417 833 l 278 833 l 278 139 "},"J":{"ha":833,"x_min":0,"x_max":0,"o":"m 694 972 l 694 139 l 556 139 l 556 972 m 139 278 l 139 139 l 0 139 l 0 278 m 556 0 l 139 0 l 139 139 l 556 139 "},"K":{"ha":833,"x_min":0,"x_max":0,"o":"m 417 556 l 139 556 l 139 0 l 0 0 l 0 972 l 139 972 l 139 694 l 417 694 m 694 833 l 556 833 l 556 972 l 694 972 m 556 694 l 417 694 l 417 833 l 556 833 m 417 417 l 417 556 l 556 556 l 556 417 m 694 417 l 694 0 l 556 0 l 556 417 "},"L":{"ha":833,"x_min":0,"x_max":0,"o":"m 694 0 l 0 0 l 0 972 l 139 972 l 139 139 l 694 139 "},"M":{"ha":833,"x_min":0,"x_max":0,"o":"m 278 833 l 278 694 l 139 694 l 139 0 l 0 0 l 0 972 l 139 972 l 139 833 m 694 972 l 694 0 l 556 0 l 556 694 l 417 694 l 417 833 l 556 833 l 556 972 m 278 694 l 417 694 l 417 556 l 278 556 "},"N":{"ha":833,"x_min":0,"x_max":0,"o":"m 278 833 l 278 694 l 139 694 l 139 0 l 0 0 l 0 972 l 139 972 l 139 833 m 694 972 l 694 0 l 556 0 l 556 417 l 417 417 l 417 556 l 556 556 l 556 972 m 417 694 l 417 556 l 278 556 l 278 694 "},"Ñ":{"ha":833,"x_min":0,"x_max":0,"o":"m 694 833 l 0 833 l 0 972 l 694 972 m 278 556 l 278 417 l 139 417 l 139 0 l 0 0 l 0 694 l 139 694 l 139 556 m 694 694 l 694 0 l 556 0 l 556 139 l 417 139 l 417 278 l 556 278 l 556 694 m 417 417 l 417 278 l 278 278 l 278 417 "},"O":{"ha":833,"x_min":0,"x_max":0,"o":"m 139 972 l 556 972 l 556 833 l 139 833 m 0 139 l 0 833 l 139 833 l 139 139 m 694 833 l 694 139 l 556 139 l 556 833 m 556 0 l 139 0 l 139 139 l 556 139 "},"Ø":{"ha":833,"x_min":0,"x_max":0,"o":"m 139 972 l 556 972 l 556 833 l 139 833 m 139 278 l 139 139 l 0 139 l 0 833 l 139 833 l 139 417 l 278 417 l 278 278 m 694 833 l 694 139 l 556 139 l 556 556 l 417 556 l 417 694 l 556 694 l 556 833 m 278 556 l 417 556 l 417 417 l 278 417 m 556 0 l 139 0 l 139 139 l 556 139 "},"P":{"ha":833,"x_min":0,"x_max":0,"o":"m 556 556 l 139 556 l 139 0 l 0 0 l 0 972 l 556 972 l 556 833 l 139 833 l 139 694 l 556 694 m 694 833 l 694 694 l 556 694 l 556 833 "},"Q":{"ha":833,"x_min":0,"x_max":0,"o":"m 139 972 l 556 972 l 556 833 l 139 833 m 0 139 l 0 833 l 139 833 l 139 139 m 694 833 l 694 278 l 556 278 l 556 833 m 417 278 l 556 278 l 556 139 l 417 139 m 417 139 l 417 0 l 139 0 l 139 139 m 556 0 l 556 139 l 694 139 l 694 0 "},"R":{"ha":833,"x_min":0,"x_max":0,"o":"m 556 556 l 139 556 l 139 0 l 0 0 l 0 972 l 556 972 l 556 833 l 139 833 l 139 694 l 556 694 m 556 694 l 556 833 l 694 833 l 694 694 m 694 556 l 694 0 l 556 0 l 556 556 "},"S":{"ha":833,"x_min":0,"x_max":0,"o":"m 139 972 l 694 972 l 694 833 l 139 833 m 139 833 l 139 694 l 0 694 l 0 833 m 139 694 l 556 694 l 556 556 l 139 556 m 694 556 l 694 139 l 556 139 l 556 556 m 139 278 l 139 139 l 0 139 l 0 278 m 556 0 l 139 0 l 139 139 l 556 139 "},"T":{"ha":833,"x_min":0,"x_max":0,"o":"m 694 833 l 417 833 l 417 0 l 278 0 l 278 833 l 0 833 l 0 972 l 694 972 "},"U":{"ha":833,"x_min":0,"x_max":0,"o":"m 0 139 l 0 972 l 139 972 l 139 139 m 694 972 l 694 139 l 556 139 l 556 972 m 556 0 l 139 0 l 139 139 l 556 139 "},"Ü":{"ha":833,"x_min":0,"x_max":0,"o":"m 139 833 l 0 833 l 0 972 l 139 972 m 694 972 l 694 833 l 556 833 l 556 972 m 0 139 l 0 694 l 139 694 l 139 139 m 694 694 l 694 139 l 556 139 l 556 694 m 556 0 l 139 0 l 139 139 l 556 139 "},"V":{"ha":833,"x_min":0,"x_max":0,"o":"m 0 417 l 0 972 l 139 972 l 139 417 m 694 972 l 694 417 l 556 417 l 556 972 m 278 139 l 139 139 l 139 417 l 278 417 m 556 417 l 556 139 l 417 139 l 417 417 m 278 139 l 417 139 l 417 0 l 278 0 "},"W":{"ha":833,"x_min":0,"x_max":0,"o":"m 278 278 l 278 139 l 139 139 l 139 0 l 0 0 l 0 972 l 139 972 l 139 278 m 694 972 l 694 0 l 556 0 l 556 139 l 417 139 l 417 278 l 556 278 l 556 972 m 417 417 l 417 278 l 278 278 l 278 417 "},"X":{"ha":833,"x_min":0,"x_max":0,"o":"m 139 972 l 139 833 l 0 833 l 0 972 m 694 833 l 556 833 l 556 972 l 694 972 m 278 833 l 278 694 l 139 694 l 139 833 m 556 694 l 417 694 l 417 833 l 556 833 m 417 694 l 417 556 l 278 556 l 278 694 m 139 556 l 278 556 l 278 417 l 139 417 m 417 417 l 417 556 l 556 556 l 556 417 m 139 417 l 139 0 l 0 0 l 0 417 m 694 417 l 694 0 l 556 0 l 556 417 "},"Y":{"ha":833,"x_min":0,"x_max":0,"o":"m 139 972 l 139 833 l 0 833 l 0 972 m 694 972 l 694 833 l 556 833 l 556 972 m 278 833 l 278 694 l 139 694 l 139 833 m 417 833 l 556 833 l 556 694 l 417 694 m 417 694 l 417 0 l 278 0 l 278 694 "},"Z":{"ha":833,"x_min":0,"x_max":0,"o":"m 694 694 l 556 694 l 556 833 l 0 833 l 0 972 l 694 972 m 417 694 l 556 694 l 556 556 l 417 556 m 278 556 l 417 556 l 417 417 l 278 417 m 139 417 l 278 417 l 278 278 l 139 278 m 139 278 l 139 139 l 694 139 l 694 0 l 0 0 l 0 278 "},"a":{"ha":833,"x_min":0,"x_max":0,"o":"m 556 556 l 139 556 l 139 694 l 556 694 m 694 556 l 694 0 l 139 0 l 139 139 l 556 139 l 556 278 l 139 278 l 139 417 l 556 417 l 556 556 m 139 278 l 139 139 l 0 139 l 0 278 "},"á":{"ha":833,"x_min":0,"x_max":0,"o":"m 694 833 l 417 833 l 417 972 l 694 972 m 556 556 l 139 556 l 139 694 l 556 694 m 556 556 l 694 556 l 694 0 l 139 0 l 139 139 l 556 139 l 556 278 l 139 278 l 139 417 l 556 417 m 139 278 l 139 139 l 0 139 l 0 278 "},"â":{"ha":833,"x_min":0,"x_max":0,"o":"m 139 972 l 556 972 l 556 833 l 139 833 m 139 833 l 139 694 l 0 694 l 0 833 m 556 694 l 556 833 l 694 833 l 694 694 m 556 556 l 139 556 l 139 694 l 556 694 m 556 556 l 694 556 l 694 0 l 139 0 l 139 139 l 556 139 l 556 278 l 139 278 l 139 417 l 556 417 m 139 278 l 139 139 l 0 139 l 0 278 "},"à":{"ha":833,"x_min":0,"x_max":0,"o":"m 0 833 l 0 972 l 278 972 l 278 833 m 556 556 l 139 556 l 139 694 l 556 694 m 694 556 l 694 0 l 139 0 l 139 139 l 556 139 l 556 278 l 139 278 l 139 417 l 556 417 l 556 556 m 139 278 l 139 139 l 0 139 l 0 278 "},"å":{"ha":833,"x_min":0,"x_max":0,"o":"m 417 833 l 278 833 l 278 972 l 417 972 m 556 556 l 139 556 l 139 694 l 556 694 m 694 556 l 694 0 l 139 0 l 139 139 l 556 139 l 556 278 l 139 278 l 139 417 l 556 417 l 556 556 m 139 278 l 139 139 l 0 139 l 0 278 "},"æ":{"ha":833,"x_min":0,"x_max":0,"o":"m 278 694 l 278 556 l 139 556 l 139 694 m 556 556 l 417 556 l 417 694 l 556 694 m 417 278 l 417 139 l 694 139 l 694 0 l 139 0 l 139 139 l 278 139 l 278 278 l 139 278 l 139 417 l 278 417 l 278 556 l 417 556 l 417 417 l 556 417 l 556 278 m 556 417 l 556 556 l 694 556 l 694 417 m 139 278 l 139 139 l 0 139 l 0 278 "},"b":{"ha":833,"x_min":0,"x_max":0,"o":"m 556 0 l 0 0 l 0 972 l 139 972 l 139 556 l 278 556 l 278 417 l 139 417 l 139 139 l 556 139 m 278 556 l 278 694 l 556 694 l 556 556 m 694 556 l 694 139 l 556 139 l 556 556 "},"c":{"ha":833,"x_min":0,"x_max":0,"o":"m 556 556 l 139 556 l 139 694 l 556 694 m 139 556 l 139 139 l 0 139 l 0 556 m 556 417 l 556 556 l 694 556 l 694 417 m 694 139 l 556 139 l 556 278 l 694 278 m 139 139 l 556 139 l 556 0 l 139 0 "},"ç":{"ha":833,"x_min":0,"x_max":0,"o":"m 556 556 l 139 556 l 139 694 l 556 694 m 139 556 l 139 139 l 0 139 l 0 556 m 556 417 l 556 556 l 694 556 l 694 417 m 694 139 l 556 139 l 556 278 l 694 278 m 139 139 l 556 139 l 556 0 l 139 0 m 556 -139 l 556 0 l 694 0 l 694 -139 m 556 -139 l 556 -278 l 278 -278 l 278 -139 "},"d":{"ha":833,"x_min":0,"x_max":0,"o":"m 694 972 l 694 0 l 139 0 l 139 139 l 556 139 l 556 417 l 417 417 l 417 556 l 556 556 l 556 972 m 139 556 l 139 694 l 417 694 l 417 556 m 0 139 l 0 556 l 139 556 l 139 139 "},"e":{"ha":833,"x_min":0,"x_max":0,"o":"m 139 694 l 556 694 l 556 556 l 139 556 m 694 556 l 694 278 l 139 278 l 139 139 l 0 139 l 0 556 l 139 556 l 139 417 l 556 417 l 556 556 m 139 139 l 694 139 l 694 0 l 139 0 "},"ê":{"ha":833,"x_min":0,"x_max":0,"o":"m 139 972 l 556 972 l 556 833 l 139 833 m 139 833 l 139 694 l 0 694 l 0 833 m 556 694 l 556 833 l 694 833 l 694 694 m 556 556 l 139 556 l 139 694 l 556 694 m 556 556 l 694 556 l 694 278 l 139 278 l 139 139 l 0 139 l 0 556 l 139 556 l 139 417 l 556 417 m 139 139 l 694 139 l 694 0 l 139 0 "},"ë":{"ha":833,"x_min":0,"x_max":0,"o":"m 278 833 l 139 833 l 139 972 l 278 972 m 556 833 l 417 833 l 417 972 l 556 972 m 139 694 l 556 694 l 556 556 l 139 556 m 694 556 l 694 278 l 139 278 l 139 139 l 0 139 l 0 556 l 139 556 l 139 417 l 556 417 l 556 556 m 139 139 l 694 139 l 694 0 l 139 0 "},"f":{"ha":694,"x_min":0,"x_max":0,"o":"m 278 833 l 278 972 l 556 972 l 556 833 m 278 833 l 278 694 l 556 694 l 556 556 l 278 556 l 278 0 l 139 0 l 139 556 l 0 556 l 0 694 l 139 694 l 139 833 "},"g":{"ha":833,"x_min":0,"x_max":0,"o":"m 694 0 l 556 0 l 556 139 l 139 139 l 139 278 l 556 278 l 556 556 l 139 556 l 139 694 l 694 694 m 139 278 l 0 278 l 0 556 l 139 556 m 556 -139 l 0 -139 l 0 0 l 556 0 "},"h":{"ha":833,"x_min":0,"x_max":0,"o":"m 278 556 l 278 417 l 139 417 l 139 0 l 0 0 l 0 972 l 139 972 l 139 556 m 556 556 l 278 556 l 278 694 l 556 694 m 694 556 l 694 0 l 556 0 l 556 556 "},"i":{"ha":278,"x_min":0,"x_max":0,"o":"m 139 972 l 139 833 l 0 833 l 0 972 m 139 694 l 139 0 l 0 0 l 0 694 "},"í":{"ha":417,"x_min":0,"x_max":0,"o":"m 278 833 l 0 833 l 0 972 l 278 972 m 139 694 l 139 0 l 0 0 l 0 694 "},"î":{"ha":556,"x_min":0,"x_max":0,"o":"m 139 833 l 0 833 l 0 972 l 139 972 m 417 972 l 417 833 l 278 833 l 278 972 m 278 694 l 278 0 l 139 0 l 139 694 "},"j":{"ha":833,"x_min":0,"x_max":0,"o":"m 694 972 l 694 833 l 556 833 l 556 972 m 694 694 l 694 0 l 556 0 l 556 694 m 139 139 l 139 0 l 0 0 l 0 139 m 556 -139 l 139 -139 l 139 0 l 556 0 "},"k":{"ha":694,"x_min":0,"x_max":0,"o":"m 278 417 l 278 278 l 139 278 l 139 0 l 0 0 l 0 972 l 139 972 l 139 417 m 556 556 l 417 556 l 417 694 l 556 694 m 417 417 l 278 417 l 278 556 l 417 556 m 278 139 l 278 278 l 417 278 l 417 139 m 417 0 l 417 139 l 556 139 l 556 0 "},"l":{"ha":417,"x_min":0,"x_max":0,"o":"m 0 139 l 0 972 l 139 972 l 139 139 m 278 139 l 278 0 l 139 0 l 139 139 "},"m":{"ha":833,"x_min":0,"x_max":0,"o":"m 278 556 l 139 556 l 139 0 l 0 0 l 0 694 l 278 694 m 556 694 l 556 556 l 417 556 l 417 694 m 417 556 l 417 278 l 278 278 l 278 556 m 694 556 l 694 0 l 556 0 l 556 556 "},"n":{"ha":833,"x_min":0,"x_max":0,"o":"m 556 556 l 139 556 l 139 0 l 0 0 l 0 694 l 556 694 m 694 556 l 694 0 l 556 0 l 556 556 "},"ñ":{"ha":833,"x_min":0,"x_max":0,"o":"m 694 833 l 0 833 l 0 972 l 694 972 m 556 556 l 139 556 l 139 0 l 0 0 l 0 694 l 556 694 m 694 556 l 694 0 l 556 0 l 556 556 "},"o":{"ha":833,"x_min":0,"x_max":0,"o":"m 139 694 l 556 694 l 556 556 l 139 556 m 0 139 l 0 556 l 139 556 l 139 139 m 694 556 l 694 139 l 556 139 l 556 556 m 556 0 l 139 0 l 139 139 l 556 139 "},"ó":{"ha":833,"x_min":0,"x_max":0,"o":"m 694 833 l 417 833 l 417 972 l 694 972 m 139 694 l 556 694 l 556 556 l 139 556 m 0 139 l 0 556 l 139 556 l 139 139 m 694 556 l 694 139 l 556 139 l 556 556 m 556 0 l 139 0 l 139 139 l 556 139 "},"ô":{"ha":833,"x_min":0,"x_max":0,"o":"m 139 972 l 556 972 l 556 833 l 139 833 m 139 833 l 139 694 l 0 694 l 0 833 m 556 694 l 556 833 l 694 833 l 694 694 m 556 556 l 139 556 l 139 694 l 556 694 m 0 139 l 0 556 l 139 556 l 139 139 m 694 556 l 694 139 l 556 139 l 556 556 m 556 0 l 139 0 l 139 139 l 556 139 "},"ö":{"ha":833,"x_min":0,"x_max":0,"o":"m 278 833 l 139 833 l 139 972 l 278 972 m 556 833 l 417 833 l 417 972 l 556 972 m 139 694 l 556 694 l 556 556 l 139 556 m 0 139 l 0 556 l 139 556 l 139 139 m 694 556 l 694 139 l 556 139 l 556 556 m 556 0 l 139 0 l 139 139 l 556 139 "},"ò":{"ha":833,"x_min":0,"x_max":0,"o":"m 0 833 l 0 972 l 278 972 l 278 833 m 139 694 l 556 694 l 556 556 l 139 556 m 0 139 l 0 556 l 139 556 l 139 139 m 694 556 l 694 139 l 556 139 l 556 556 m 556 0 l 139 0 l 139 139 l 556 139 "},"ø":{"ha":833,"x_min":0,"x_max":0,"o":"m 694 556 l 694 139 l 556 139 l 556 417 l 417 417 l 417 556 l 139 556 l 139 694 l 556 694 l 556 556 m 556 139 l 556 0 l 417 0 l 417 -139 l 278 -139 l 278 0 l 139 0 l 139 139 l 0 139 l 0 556 l 139 556 l 139 278 l 278 278 l 278 139 m 278 417 l 417 417 l 417 278 l 278 278 "},"p":{"ha":833,"x_min":0,"x_max":0,"o":"m 556 139 l 139 139 l 139 -139 l 0 -139 l 0 694 l 139 694 l 139 556 l 278 556 l 278 417 l 139 417 l 139 278 l 556 278 m 278 556 l 278 694 l 556 694 l 556 556 m 694 556 l 694 278 l 556 278 l 556 556 "},"q":{"ha":833,"x_min":0,"x_max":0,"o":"m 694 694 l 694 -139 l 556 -139 l 556 139 l 139 139 l 139 278 l 556 278 l 556 417 l 417 417 l 417 556 l 556 556 l 556 694 m 139 556 l 139 694 l 417 694 l 417 556 m 139 278 l 0 278 l 0 556 l 139 556 "},"r":{"ha":833,"x_min":0,"x_max":0,"o":"m 139 556 l 278 556 l 278 417 l 139 417 l 139 0 l 0 0 l 0 694 l 139 694 m 556 556 l 278 556 l 278 694 l 556 694 m 694 556 l 694 417 l 556 417 l 556 556 "},"s":{"ha":833,"x_min":0,"x_max":0,"o":"m 139 694 l 694 694 l 694 556 l 139 556 m 139 556 l 139 417 l 0 417 l 0 556 m 139 417 l 556 417 l 556 278 l 139 278 m 556 139 l 556 278 l 694 278 l 694 139 m 556 0 l 0 0 l 0 139 l 556 139 "},"t":{"ha":556,"x_min":0,"x_max":0,"o":"m 139 139 l 139 556 l 0 556 l 0 694 l 139 694 l 139 972 l 278 972 l 278 694 l 417 694 l 417 556 l 278 556 l 278 139 m 278 0 l 278 139 l 417 139 l 417 0 "},"u":{"ha":833,"x_min":0,"x_max":0,"o":"m 0 139 l 0 694 l 139 694 l 139 139 m 694 694 l 694 0 l 139 0 l 139 139 l 556 139 l 556 694 "},"ú":{"ha":833,"x_min":0,"x_max":0,"o":"m 694 833 l 417 833 l 417 972 l 694 972 m 0 139 l 0 694 l 139 694 l 139 139 m 694 694 l 694 0 l 139 0 l 139 139 l 556 139 l 556 694 "},"û":{"ha":833,"x_min":0,"x_max":0,"o":"m 556 833 l 139 833 l 139 972 l 556 972 m 0 833 l 139 833 l 139 694 l 0 694 m 694 833 l 694 694 l 556 694 l 556 833 m 0 139 l 0 556 l 139 556 l 139 139 m 694 556 l 694 0 l 139 0 l 139 139 l 556 139 l 556 556 "},"ü":{"ha":833,"x_min":0,"x_max":0,"o":"m 278 833 l 139 833 l 139 972 l 278 972 m 556 833 l 417 833 l 417 972 l 556 972 m 0 139 l 0 694 l 139 694 l 139 139 m 694 694 l 694 0 l 139 0 l 139 139 l 556 139 l 556 694 "},"ù":{"ha":833,"x_min":0,"x_max":0,"o":"m 0 833 l 0 972 l 278 972 l 278 833 m 0 139 l 0 694 l 139 694 l 139 139 m 694 694 l 694 0 l 139 0 l 139 139 l 556 139 l 556 694 "},"v":{"ha":833,"x_min":0,"x_max":0,"o":"m 0 278 l 0 694 l 139 694 l 139 278 m 694 694 l 694 278 l 556 278 l 556 694 m 278 278 l 278 139 l 139 139 l 139 278 m 417 278 l 556 278 l 556 139 l 417 139 m 278 139 l 417 139 l 417 0 l 278 0 "},"w":{"ha":833,"x_min":0,"x_max":0,"o":"m 0 139 l 0 694 l 139 694 l 139 139 m 694 694 l 694 0 l 139 0 l 139 139 l 278 139 l 278 417 l 417 417 l 417 139 l 556 139 l 556 694 "},"x":{"ha":833,"x_min":0,"x_max":0,"o":"m 0 694 l 139 694 l 139 556 l 0 556 m 556 694 l 694 694 l 694 556 l 556 556 m 139 556 l 278 556 l 278 417 l 139 417 m 417 556 l 556 556 l 556 417 l 417 417 m 278 417 l 417 417 l 417 278 l 278 278 m 139 278 l 278 278 l 278 139 l 139 139 m 417 278 l 556 278 l 556 139 l 417 139 m 0 139 l 139 139 l 139 0 l 0 0 m 556 139 l 694 139 l 694 0 l 556 0 "},"y":{"ha":833,"x_min":0,"x_max":0,"o":"m 0 278 l 0 694 l 139 694 l 139 278 m 694 694 l 694 0 l 556 0 l 556 139 l 139 139 l 139 278 l 556 278 l 556 694 m 556 -139 l 0 -139 l 0 0 l 556 0 "},"ÿ":{"ha":833,"x_min":0,"x_max":0,"o":"m 278 833 l 139 833 l 139 972 l 278 972 m 556 833 l 417 833 l 417 972 l 556 972 m 0 278 l 0 694 l 139 694 l 139 278 m 694 694 l 694 0 l 556 0 l 556 139 l 139 139 l 139 278 l 556 278 l 556 694 m 556 -139 l 0 -139 l 0 0 l 556 0 "},"z":{"ha":833,"x_min":0,"x_max":0,"o":"m 556 417 l 417 417 l 417 556 l 0 556 l 0 694 l 694 694 l 694 556 l 556 556 m 417 278 l 278 278 l 278 417 l 417 417 m 278 278 l 278 139 l 694 139 l 694 0 l 0 0 l 0 139 l 139 139 l 139 278 "},"Ω":{"ha":833,"x_min":0,"x_max":0,"o":"m 556 833 l 139 833 l 139 972 l 556 972 m 139 833 l 139 278 l 0 278 l 0 833 m 694 833 l 694 278 l 556 278 l 556 833 m 139 139 l 139 278 l 278 278 l 278 0 l 0 0 l 0 139 m 556 278 l 556 139 l 694 139 l 694 0 l 417 0 l 417 278 "},".":{"ha":278,"x_min":0,"x_max":0,"o":"m 139 278 l 139 0 l 0 0 l 0 278 "},",":{"ha":278,"x_min":0,"x_max":0,"o":"m 139 278 l 139 -139 l 0 -139 l 0 278 "},":":{"ha":278,"x_min":0,"x_max":0,"o":"m 139 833 l 139 556 l 0 556 l 0 833 m 139 278 l 139 0 l 0 0 l 0 278 "},";":{"ha":278,"x_min":0,"x_max":0,"o":"m 139 833 l 139 556 l 0 556 l 0 833 m 139 278 l 139 -139 l 0 -139 l 0 278 "},"!":{"ha":278,"x_min":0,"x_max":0,"o":"m 139 972 l 139 278 l 0 278 l 0 972 m 0 139 l 139 139 l 139 0 l 0 0 "},"¡":{"ha":278,"x_min":0,"x_max":0,"o":"m 139 833 l 139 694 l 0 694 l 0 833 m 139 556 l 139 0 l 0 0 l 0 556 "},"?":{"ha":833,"x_min":0,"x_max":0,"o":"m 556 833 l 139 833 l 139 972 l 556 972 m 0 833 l 139 833 l 139 694 l 0 694 m 694 833 l 694 556 l 556 556 l 556 833 m 417 556 l 556 556 l 556 417 l 417 417 m 278 417 l 417 417 l 417 278 l 278 278 m 278 139 l 417 139 l 417 0 l 278 0 "},"¿":{"ha":833,"x_min":0,"x_max":0,"o":"m 417 833 l 278 833 l 278 972 l 417 972 m 417 556 l 278 556 l 278 694 l 417 694 m 278 417 l 139 417 l 139 556 l 278 556 m 139 139 l 0 139 l 0 417 l 139 417 m 694 278 l 694 139 l 556 139 l 556 278 m 556 0 l 139 0 l 139 139 l 556 139 "},"·":{"ha":417,"x_min":0,"x_max":0,"o":"m 278 278 l 0 278 l 0 556 l 278 556 "},"•":{"ha":417,"x_min":0,"x_max":0,"o":"m 278 278 l 0 278 l 0 556 l 278 556 "},"*":{"ha":694,"x_min":0,"x_max":0,"o":"m 139 694 l 139 556 l 0 556 l 0 694 m 556 556 l 417 556 l 417 694 l 556 694 m 417 417 l 139 417 l 139 556 l 417 556 m 0 417 l 139 417 l 139 278 l 0 278 m 417 278 l 417 417 l 556 417 l 556 278 "},"#":{"ha":833,"x_min":0,"x_max":0,"o":"m 556 556 l 556 417 l 694 417 l 694 278 l 556 278 l 556 0 l 417 0 l 417 278 l 278 278 l 278 0 l 139 0 l 139 278 l 0 278 l 0 417 l 139 417 l 139 556 l 0 556 l 0 694 l 139 694 l 139 972 l 278 972 l 278 694 l 417 694 l 417 972 l 556 972 l 556 694 l 694 694 l 694 556 m 417 556 l 278 556 l 278 417 l 417 417 "},"/":{"ha":833,"x_min":0,"x_max":0,"o":"m 694 972 l 694 833 l 556 833 l 556 972 m 556 833 l 556 556 l 417 556 l 417 833 m 278 556 l 417 556 l 417 417 l 278 417 m 278 417 l 278 139 l 139 139 l 139 417 m 0 139 l 139 139 l 139 0 l 0 0 "},"\\":{"ha":833,"x_min":0,"x_max":0,"o":"m 139 972 l 139 833 l 0 833 l 0 972 m 278 556 l 139 556 l 139 833 l 278 833 m 417 556 l 417 417 l 278 417 l 278 556 m 556 139 l 417 139 l 417 417 l 556 417 m 694 139 l 694 0 l 556 0 l 556 139 "},"(":{"ha":694,"x_min":0,"x_max":0,"o":"m 278 833 l 278 972 l 556 972 l 556 833 m 278 694 l 139 694 l 139 833 l 278 833 m 0 278 l 0 694 l 139 694 l 139 278 m 139 139 l 139 278 l 278 278 l 278 139 m 278 139 l 556 139 l 556 0 l 278 0 "},")":{"ha":694,"x_min":0,"x_max":0,"o":"m 278 833 l 0 833 l 0 972 l 278 972 m 417 833 l 417 694 l 278 694 l 278 833 m 556 694 l 556 278 l 417 278 l 417 694 m 278 278 l 417 278 l 417 139 l 278 139 m 278 139 l 278 0 l 0 0 l 0 139 "},"{":{"ha":694,"x_min":0,"x_max":0,"o":"m 278 833 l 278 972 l 556 972 l 556 833 m 139 556 l 139 833 l 278 833 l 278 556 m 139 556 l 139 417 l 0 417 l 0 556 m 139 417 l 278 417 l 278 139 l 139 139 m 278 139 l 556 139 l 556 0 l 278 0 "},"}":{"ha":694,"x_min":0,"x_max":0,"o":"m 278 833 l 0 833 l 0 972 l 278 972 m 417 556 l 278 556 l 278 833 l 417 833 m 556 556 l 556 417 l 417 417 l 417 556 m 417 417 l 417 139 l 278 139 l 278 417 m 278 139 l 278 0 l 0 0 l 0 139 "},"[":{"ha":556,"x_min":0,"x_max":0,"o":"m 417 139 l 417 0 l 0 0 l 0 972 l 417 972 l 417 833 l 139 833 l 139 139 "},"]":{"ha":556,"x_min":0,"x_max":0,"o":"m 417 0 l 0 0 l 0 139 l 278 139 l 278 833 l 0 833 l 0 972 l 417 972 "},"-":{"ha":833,"x_min":0,"x_max":0,"o":"m 694 417 l 0 417 l 0 556 l 694 556 "},"­":{"ha":417,"x_min":0,"x_max":0,"o":"m 278 417 l 0 417 l 0 556 l 278 556 "},"—":{"ha":833,"x_min":0,"x_max":0,"o":"m 694 417 l 0 417 l 0 556 l 694 556 "},"_":{"ha":833,"x_min":0,"x_max":0,"o":"m 694 -139 l 0 -139 l 0 0 l 694 0 "},"«":{"ha":833,"x_min":0,"x_max":0,"o":"m 278 694 l 417 694 l 417 556 l 278 556 m 556 694 l 694 694 l 694 556 l 556 556 m 139 556 l 278 556 l 278 417 l 139 417 m 417 556 l 556 556 l 556 417 l 417 417 m 0 417 l 139 417 l 139 278 l 0 278 m 278 417 l 417 417 l 417 278 l 278 278 m 139 278 l 278 278 l 278 139 l 139 139 m 417 278 l 556 278 l 556 139 l 417 139 m 278 139 l 417 139 l 417 0 l 278 0 m 556 139 l 694 139 l 694 0 l 556 0 "},"»":{"ha":833,"x_min":0,"x_max":0,"o":"m 0 694 l 139 694 l 139 556 l 0 556 m 278 694 l 417 694 l 417 556 l 278 556 m 139 556 l 278 556 l 278 417 l 139 417 m 417 556 l 556 556 l 556 417 l 417 417 m 278 417 l 417 417 l 417 278 l 278 278 m 556 417 l 694 417 l 694 278 l 556 278 m 139 278 l 278 278 l 278 139 l 139 139 m 417 278 l 556 278 l 556 139 l 417 139 m 0 139 l 139 139 l 139 0 l 0 0 m 278 139 l 417 139 l 417 0 l 278 0 "},"\"":{"ha":694,"x_min":0,"x_max":0,"o":"m 278 694 l 139 694 l 139 972 l 278 972 m 556 972 l 556 694 l 417 694 l 417 972 m 0 694 l 139 694 l 139 556 l 0 556 m 278 694 l 417 694 l 417 556 l 278 556 "},"'":{"ha":417,"x_min":0,"x_max":0,"o":"m 278 972 l 278 694 l 139 694 l 139 972 m 0 694 l 139 694 l 139 556 l 0 556 "}," ":{"ha":556,"x_min":0,"x_max":0,"o":""},"¢":{"ha":694,"x_min":0,"x_max":0,"o":"m 139 556 l 278 556 l 278 694 l 417 694 l 417 556 l 556 556 l 556 417 l 139 417 m 139 417 l 139 278 l 0 278 l 0 417 m 139 139 l 139 278 l 556 278 l 556 139 l 417 139 l 417 0 l 278 0 l 278 139 "},"¤":{"ha":556,"x_min":0,"x_max":0,"o":"m 0 694 l 139 694 l 139 556 l 0 556 m 278 694 l 417 694 l 417 556 l 278 556 m 139 556 l 278 556 l 278 417 l 139 417 m 0 417 l 139 417 l 139 278 l 0 278 m 278 417 l 417 417 l 417 278 l 278 278 "},"$":{"ha":833,"x_min":0,"x_max":0,"o":"m 139 833 l 278 833 l 278 972 l 417 972 l 417 833 l 694 833 l 694 694 l 139 694 m 139 694 l 139 556 l 0 556 l 0 694 m 139 556 l 556 556 l 556 417 l 139 417 m 556 278 l 556 417 l 694 417 l 694 278 m 556 139 l 417 139 l 417 0 l 278 0 l 278 139 l 0 139 l 0 278 l 556 278 "},"ƒ":{"ha":833,"x_min":0,"x_max":0,"o":"m 556 972 l 556 833 l 417 833 l 417 972 m 417 833 l 417 556 l 556 556 l 556 417 l 417 417 l 417 139 l 278 139 l 278 417 l 139 417 l 139 556 l 278 556 l 278 833 m 694 833 l 694 694 l 556 694 l 556 833 m 139 278 l 139 139 l 0 139 l 0 278 m 139 139 l 278 139 l 278 0 l 139 0 "},"£":{"ha":833,"x_min":0,"x_max":0,"o":"m 556 833 l 278 833 l 278 972 l 556 972 m 278 833 l 278 556 l 556 556 l 556 417 l 278 417 l 278 139 l 694 139 l 694 0 l 0 0 l 0 139 l 139 139 l 139 417 l 0 417 l 0 556 l 139 556 l 139 833 m 556 694 l 556 833 l 694 833 l 694 694 "},"+":{"ha":833,"x_min":0,"x_max":0,"o":"m 694 417 l 417 417 l 417 139 l 278 139 l 278 417 l 0 417 l 0 556 l 278 556 l 278 833 l 417 833 l 417 556 l 694 556 "},"÷":{"ha":833,"x_min":0,"x_max":0,"o":"m 417 694 l 278 694 l 278 833 l 417 833 m 694 417 l 0 417 l 0 556 l 694 556 m 278 278 l 417 278 l 417 139 l 278 139 "},"=":{"ha":833,"x_min":0,"x_max":0,"o":"m 694 556 l 0 556 l 0 694 l 694 694 m 694 139 l 0 139 l 0 278 l 694 278 "},">":{"ha":694,"x_min":0,"x_max":0,"o":"m 0 972 l 139 972 l 139 833 l 0 833 m 139 833 l 278 833 l 278 694 l 139 694 m 278 694 l 417 694 l 417 556 l 278 556 m 417 556 l 556 556 l 556 417 l 417 417 m 278 417 l 417 417 l 417 278 l 278 278 m 139 278 l 278 278 l 278 139 l 139 139 m 0 139 l 139 139 l 139 0 l 0 0 "},"<":{"ha":694,"x_min":0,"x_max":0,"o":"m 417 972 l 556 972 l 556 833 l 417 833 m 278 833 l 417 833 l 417 694 l 278 694 m 139 694 l 278 694 l 278 556 l 139 556 m 0 556 l 139 556 l 139 417 l 0 417 m 139 417 l 278 417 l 278 278 l 139 278 m 278 278 l 417 278 l 417 139 l 278 139 m 417 139 l 556 139 l 556 0 l 417 0 "},"±":{"ha":833,"x_min":0,"x_max":0,"o":"m 694 556 l 417 556 l 417 278 l 278 278 l 278 556 l 0 556 l 0 694 l 278 694 l 278 972 l 417 972 l 417 694 l 694 694 m 694 0 l 0 0 l 0 139 l 694 139 "},"≈":{"ha":1111,"x_min":0,"x_max":0,"o":"m 972 694 l 833 694 l 833 556 l 417 556 l 417 694 l 278 694 l 278 556 l 0 556 l 0 694 l 139 694 l 139 833 l 556 833 l 556 694 l 694 694 l 694 833 l 972 833 m 972 417 l 972 278 l 833 278 l 833 139 l 417 139 l 417 278 l 278 278 l 278 139 l 0 139 l 0 278 l 139 278 l 139 417 l 556 417 l 556 278 l 694 278 l 694 417 "},"~":{"ha":972,"x_min":0,"x_max":0,"o":"m 417 833 l 139 833 l 139 972 l 417 972 m 833 972 l 833 833 l 694 833 l 694 972 m 0 833 l 139 833 l 139 694 l 0 694 m 694 833 l 694 694 l 417 694 l 417 833 "},"¬":{"ha":833,"x_min":0,"x_max":0,"o":"m 694 139 l 556 139 l 556 278 l 0 278 l 0 417 l 694 417 "},"∞":{"ha":1111,"x_min":0,"x_max":0,"o":"m 139 556 l 139 694 l 417 694 l 417 556 m 556 556 l 556 694 l 833 694 l 833 556 m 139 278 l 0 278 l 0 556 l 139 556 m 556 278 l 417 278 l 417 556 l 556 556 m 972 556 l 972 278 l 833 278 l 833 556 m 417 278 l 417 139 l 139 139 l 139 278 m 833 278 l 833 139 l 556 139 l 556 278 "},"∑":{"ha":833,"x_min":0,"x_max":0,"o":"m 694 694 l 556 694 l 556 833 l 139 833 l 139 694 l 0 694 l 0 972 l 694 972 m 139 556 l 139 694 l 278 694 l 278 556 m 278 417 l 278 556 l 417 556 l 417 417 m 139 417 l 278 417 l 278 278 l 139 278 m 139 278 l 139 139 l 556 139 l 556 278 l 694 278 l 694 0 l 0 0 l 0 278 "},"√":{"ha":1250,"x_min":0,"x_max":0,"o":"m 1111 833 l 833 833 l 833 0 l 417 0 l 417 139 l 278 139 l 278 278 l 139 278 l 139 417 l 0 417 l 0 556 l 417 556 l 417 278 l 556 278 l 556 972 l 1111 972 "},"%":{"ha":833,"x_min":0,"x_max":0,"o":"m 0 694 l 0 972 l 139 972 l 139 694 m 694 972 l 694 833 l 556 833 l 556 972 m 556 833 l 556 556 l 417 556 l 417 833 m 278 556 l 417 556 l 417 417 l 278 417 m 278 417 l 278 139 l 139 139 l 139 417 m 694 278 l 694 0 l 556 0 l 556 278 m 0 139 l 139 139 l 139 0 l 0 0 "},"☺":{"ha":1250,"x_min":0,"x_max":0,"o":"m 139 972 l 972 972 l 972 833 l 139 833 m 0 0 l 0 833 l 139 833 l 139 0 m 1111 833 l 1111 0 l 972 0 l 972 833 m 417 556 l 278 556 l 278 694 l 417 694 m 694 694 l 833 694 l 833 556 l 694 556 m 833 278 l 694 278 l 694 139 l 417 139 l 417 278 l 278 278 l 278 417 l 833 417 m 972 -139 l 139 -139 l 139 0 l 972 0 "},"☻":{"ha":1250,"x_min":0,"x_max":0,"o":"m 1111 833 l 1111 0 l 972 0 l 972 -139 l 139 -139 l 139 0 l 0 0 l 0 833 l 139 833 l 139 972 l 972 972 l 972 833 m 278 556 l 417 556 l 417 694 l 278 694 m 833 694 l 694 694 l 694 556 l 833 556 m 833 417 l 278 417 l 278 278 l 417 278 l 417 139 l 694 139 l 694 278 l 833 278 "},"☼":{"ha":1250,"x_min":0,"x_max":0,"o":"m 139 972 l 139 833 l 0 833 l 0 972 m 833 694 l 833 556 l 1111 556 l 1111 278 l 833 278 l 833 139 l 694 139 l 694 -139 l 417 -139 l 417 139 l 278 139 l 278 278 l 0 278 l 0 556 l 278 556 l 278 694 l 417 694 l 417 972 l 694 972 l 694 694 m 1111 833 l 972 833 l 972 972 l 1111 972 m 278 833 l 278 694 l 139 694 l 139 833 m 972 694 l 833 694 l 833 833 l 972 833 m 417 556 l 417 278 l 694 278 l 694 556 m 139 139 l 278 139 l 278 0 l 139 0 m 833 0 l 833 139 l 972 139 l 972 0 m 0 0 l 139 0 l 139 -139 l 0 -139 m 972 -139 l 972 0 l 1111 0 l 1111 -139 "},"♀":{"ha":833,"x_min":0,"x_max":0,"o":"m 139 972 l 556 972 l 556 833 l 139 833 m 0 417 l 0 833 l 139 833 l 139 417 m 694 833 l 694 417 l 556 417 l 556 833 m 556 278 l 417 278 l 417 139 l 556 139 l 556 0 l 417 0 l 417 -139 l 278 -139 l 278 0 l 139 0 l 139 139 l 278 139 l 278 278 l 139 278 l 139 417 l 556 417 "},"♂":{"ha":1111,"x_min":0,"x_max":0,"o":"m 972 556 l 833 556 l 833 694 l 694 694 l 694 833 l 556 833 l 556 972 l 972 972 m 556 694 l 694 694 l 694 556 l 556 556 m 556 417 l 139 417 l 139 556 l 556 556 m 0 0 l 0 417 l 139 417 l 139 0 m 694 417 l 694 0 l 556 0 l 556 417 m 556 -139 l 139 -139 l 139 0 l 556 0 "},"♠":{"ha":1111,"x_min":0,"x_max":0,"o":"m 972 417 l 972 278 l 833 278 l 833 139 l 694 139 l 694 0 l 833 0 l 833 -139 l 139 -139 l 139 0 l 278 0 l 278 139 l 139 139 l 139 278 l 0 278 l 0 417 l 139 417 l 139 556 l 278 556 l 278 694 l 417 694 l 417 972 l 556 972 l 556 694 l 694 694 l 694 556 l 833 556 l 833 417 "},"♣":{"ha":1111,"x_min":0,"x_max":0,"o":"m 972 278 l 833 278 l 833 139 l 694 139 l 694 0 l 833 0 l 833 -139 l 139 -139 l 139 0 l 278 0 l 278 139 l 139 139 l 139 278 l 0 278 l 0 556 l 278 556 l 278 694 l 139 694 l 139 833 l 278 833 l 278 972 l 694 972 l 694 833 l 833 833 l 833 694 l 694 694 l 694 556 l 972 556 "},"♥":{"ha":1111,"x_min":0,"x_max":0,"o":"m 972 833 l 972 417 l 833 417 l 833 278 l 694 278 l 694 139 l 556 139 l 556 0 l 417 0 l 417 139 l 278 139 l 278 278 l 139 278 l 139 417 l 0 417 l 0 833 l 139 833 l 139 972 l 417 972 l 417 833 l 556 833 l 556 972 l 833 972 l 833 833 "},"♦":{"ha":1111,"x_min":0,"x_max":0,"o":"m 972 556 l 972 417 l 833 417 l 833 278 l 694 278 l 694 139 l 556 139 l 556 0 l 417 0 l 417 139 l 278 139 l 278 278 l 139 278 l 139 417 l 0 417 l 0 556 l 139 556 l 139 694 l 278 694 l 278 833 l 417 833 l 417 972 l 556 972 l 556 833 l 694 833 l 694 694 l 833 694 l 833 556 "},"@":{"ha":972,"x_min":0,"x_max":0,"o":"m 694 833 l 139 833 l 139 972 l 694 972 m 139 833 l 139 139 l 0 139 l 0 833 m 833 833 l 833 278 l 278 278 l 278 694 l 556 694 l 556 417 l 694 417 l 694 833 m 139 139 l 694 139 l 694 0 l 139 0 "},"&":{"ha":833,"x_min":0,"x_max":0,"o":"m 417 833 l 278 833 l 278 972 l 417 972 m 278 833 l 278 694 l 139 694 l 139 833 m 417 694 l 417 833 l 556 833 l 556 694 m 556 139 l 417 139 l 417 278 l 278 278 l 278 417 l 139 417 l 139 556 l 278 556 l 278 694 l 417 694 l 417 417 l 556 417 m 694 417 l 556 417 l 556 556 l 694 556 m 139 139 l 0 139 l 0 417 l 139 417 m 417 139 l 417 0 l 139 0 l 139 139 m 556 0 l 556 139 l 694 139 l 694 0 "},"¶":{"ha":972,"x_min":0,"x_max":0,"o":"m 833 0 l 694 0 l 694 833 l 556 833 l 556 0 l 417 0 l 417 417 l 139 417 l 139 556 l 417 556 l 417 833 l 139 833 l 139 972 l 833 972 m 139 556 l 0 556 l 0 833 l 139 833 "},"§":{"ha":833,"x_min":0,"x_max":0,"o":"m 139 972 l 694 972 l 694 833 l 139 833 m 139 833 l 139 694 l 0 694 l 0 833 m 139 694 l 556 694 l 556 556 l 139 556 m 139 556 l 139 417 l 0 417 l 0 556 m 556 417 l 556 556 l 694 556 l 694 417 m 556 278 l 139 278 l 139 417 l 556 417 m 556 139 l 556 278 l 694 278 l 694 139 m 556 0 l 0 0 l 0 139 l 556 139 "},"®":{"ha":972,"x_min":0,"x_max":0,"o":"m 139 556 l 139 694 l 694 694 l 694 556 l 556 556 l 556 417 l 417 417 l 417 278 l 278 278 l 278 556 m 556 139 l 694 139 l 694 0 l 139 0 l 139 139 l 0 139 l 0 556 l 139 556 l 139 278 l 278 278 l 278 139 l 417 139 l 417 278 l 556 278 m 833 556 l 833 139 l 694 139 l 694 556 "},"|":{"ha":278,"x_min":0,"x_max":0,"o":"m 139 972 l 139 556 l 0 556 l 0 972 m 139 417 l 139 0 l 0 0 l 0 417 "},"^":{"ha":833,"x_min":0,"x_max":0,"o":"m 278 972 l 417 972 l 417 833 l 278 833 m 139 833 l 278 833 l 278 694 l 139 694 m 417 833 l 556 833 l 556 694 l 417 694 m 0 694 l 139 694 l 139 556 l 0 556 m 556 694 l 694 694 l 694 556 l 556 556 "},"⌂":{"ha":833,"x_min":0,"x_max":0,"o":"m 417 556 l 278 556 l 278 694 l 417 694 m 278 417 l 139 417 l 139 556 l 278 556 m 417 417 l 417 556 l 556 556 l 556 417 m 694 417 l 694 0 l 0 0 l 0 417 l 139 417 l 139 139 l 556 139 l 556 417 "},"¸":{"ha":556,"x_min":0,"x_max":0,"o":"m 417 0 l 417 -139 l 278 -139 l 278 0 m 278 -139 l 278 -278 l 0 -278 l 0 -139 "}}}
